<?xml version="1.0" standalone="no"?>
<!DOCTYPE svg PUBLIC "-//W3C//DTD SVG 20010904//EN"
 "http://www.w3.org/TR/2001/REC-SVG-20010904/DTD/svg10.dtd">
<svg version="1.0" xmlns="http://www.w3.org/2000/svg"
 width="1024.000000pt" height="1024.000000pt" viewBox="0 0 1024.000000 1024.000000"
 preserveAspectRatio="xMidYMid meet">

<g transform="translate(0.000000,1024.000000) scale(0.100000,-0.100000)"
fill="#ffffff" stroke="none">
<path d="M2215 6746 c-135 -33 -253 -116 -322 -229 -31 -50 -46 -63 -100 -89
-129 -63 -229 -168 -274 -287 -13 -35 -23 -89 -26 -146 -5 -87 -6 -92 -48
-145 -54 -71 -82 -125 -101 -203 -23 -86 -14 -208 21 -305 25 -70 26 -75 11
-120 -63 -192 -22 -380 113 -524 39 -42 61 -74 61 -89 0 -46 41 -174 76 -236
72 -129 176 -214 324 -263 68 -24 83 -34 160 -111 77 -78 96 -91 215 -148 72
-34 146 -71 165 -80 50 -26 80 -74 80 -128 0 -114 137 -128 155 -16 12 73 16
83 43 112 15 16 64 45 110 65 146 62 212 104 301 193 75 76 90 86 150 105 226
68 387 254 416 478 6 48 13 62 55 105 138 143 182 318 130 519 -18 70 -18 81
-5 106 23 45 45 149 45 215 0 112 -33 204 -113 310 -44 59 -45 62 -49 150 -10
185 -111 342 -276 428 -60 32 -81 50 -125 110 -68 91 -120 138 -197 177 -222
112 -421 66 -547 -126 -12 -18 -13 -18 -24 1 -6 11 -39 47 -73 80 -50 50 -73
65 -129 83 -74 24 -145 27 -222 8z m184 -160 c15 -8 45 -34 65 -57 73 -80 106
-191 106 -355 l0 -111 -38 18 c-21 11 -72 26 -112 35 -289 60 -565 -199 -520
-488 12 -82 37 -150 73 -203 14 -21 148 -164 297 -317 156 -160 278 -294 286
-313 11 -28 14 -114 14 -455 0 -231 -2 -420 -4 -420 -2 0 -48 20 -103 44 -153
67 -245 137 -315 239 -13 19 -34 29 -89 41 -92 21 -178 67 -233 126 -74 79
-96 136 -132 346 -2 11 -24 35 -49 53 -90 64 -155 208 -140 308 l6 44 47 -34
c26 -19 65 -44 87 -55 56 -28 171 -62 210 -62 47 0 85 33 85 75 0 50 -26 72
-104 90 -194 44 -332 193 -344 370 -6 100 15 169 74 234 31 35 54 51 70 51 32
0 74 42 74 74 0 14 -14 41 -30 59 -60 68 -33 176 70 278 59 60 74 69 145 92
l80 25 21 54 c36 89 129 179 222 213 49 18 146 19 181 1z m721 -19 c75 -36
146 -107 181 -180 27 -58 31 -62 89 -83 146 -53 246 -168 258 -297 5 -56 3
-60 -24 -82 -21 -17 -28 -31 -28 -59 0 -43 17 -63 70 -80 53 -18 108 -91 130
-173 35 -128 -4 -260 -105 -356 -75 -72 -147 -106 -273 -132 -37 -7 -68 -43
-68 -77 0 -38 40 -78 77 -78 76 0 236 61 311 117 23 18 45 33 48 33 4 0 4 -39
2 -87 -5 -106 -32 -166 -103 -233 -26 -25 -56 -53 -66 -62 -11 -11 -19 -32
-19 -50 0 -52 -28 -167 -51 -215 -55 -113 -184 -207 -322 -233 -66 -12 -66
-12 -116 -80 -27 -37 -74 -87 -105 -110 -48 -36 -183 -102 -253 -124 l-23 -7
0 448 0 448 280 280 c155 154 296 303 315 331 57 86 78 163 73 280 -3 88 -7
108 -35 165 -58 116 -139 191 -251 230 -101 35 -249 25 -346 -23 l-39 -20 6
134 c8 207 60 335 158 386 59 31 150 27 229 -11z m-667 -627 c23 -11 72 -49
109 -85 44 -43 74 -65 90 -65 16 0 44 21 88 65 80 81 140 109 230 109 84 0
144 -28 204 -95 78 -87 94 -217 39 -323 -10 -19 -141 -160 -290 -314 l-273
-280 -261 263 c-143 145 -272 279 -285 299 -38 55 -58 149 -46 210 16 77 28
102 72 150 85 92 212 118 323 66z"/>
<path d="M2095 4595 c-34 -33 -31 -65 11 -146 69 -130 153 -181 209 -124 36
35 31 66 -15 120 -23 26 -52 69 -65 95 -41 81 -94 102 -140 55z"/>
<path d="M3113 4610 c-12 -5 -34 -32 -48 -59 -14 -28 -38 -66 -55 -84 -48 -55
-60 -84 -48 -118 17 -49 80 -66 126 -34 31 22 112 139 128 185 17 48 4 92 -32
109 -29 13 -41 13 -71 1z"/>
<path d="M5865 6636 c-44 -13 -92 -27 -107 -30 -37 -8 -36 -32 2 -51 43 -22
52 -46 58 -163 l5 -104 -44 8 c-78 16 -189 9 -240 -13 -143 -64 -228 -220
-216 -398 6 -97 33 -168 85 -218 52 -51 103 -69 189 -69 87 0 148 25 193 80
l30 37 0 -57 c0 -31 3 -59 8 -61 4 -2 58 3 120 11 97 13 112 17 112 33 0 11
-6 19 -14 19 -8 0 -24 9 -37 19 l-24 19 -5 478 c-4 415 -7 479 -20 481 -8 1
-51 -9 -95 -21z m-97 -403 c44 -32 51 -71 51 -285 l1 -196 -30 -26 c-91 -76
-212 -50 -265 58 -63 129 -32 351 62 437 15 15 35 29 43 32 29 12 111 0 138
-20z"/>
<path d="M4480 6566 c0 -8 16 -20 35 -26 64 -21 63 -15 67 -448 l3 -394 -24
-19 c-13 -10 -33 -19 -46 -19 -28 0 -54 -27 -34 -35 8 -3 180 -4 384 -3 l370
3 12 100 c18 148 17 155 -10 155 -17 0 -26 -9 -36 -37 -23 -62 -59 -111 -103
-140 -39 -26 -50 -28 -164 -32 l-122 -3 -19 28 c-16 25 -18 50 -18 204 l0 175
89 -2 c132 -3 161 -20 186 -112 8 -31 16 -41 28 -39 15 3 17 22 17 178 0 168
-1 175 -20 175 -14 0 -21 -8 -23 -27 -2 -15 -20 -46 -41 -70 l-39 -43 -101 -3
-101 -4 0 200 0 200 28 6 c15 3 68 4 118 2 147 -6 200 -39 241 -152 14 -36 24
-49 38 -49 17 0 21 8 23 50 2 28 1 83 -3 123 l-7 72 -364 0 c-308 0 -364 -2
-364 -14z"/>
<path d="M6325 6297 c-96 -32 -163 -90 -203 -177 -21 -44 -27 -74 -30 -151 -5
-114 11 -182 60 -255 78 -116 264 -153 414 -83 86 41 156 131 125 162 -8 8
-19 3 -44 -21 -42 -40 -107 -64 -182 -65 -69 -1 -110 17 -149 63 -29 35 -54
112 -58 180 l-3 45 215 6 c118 3 217 6 219 7 2 1 1 31 -1 67 -12 142 -98 223
-245 231 -49 2 -93 -1 -118 -9z m136 -54 c40 -24 71 -90 67 -145 l-3 -43 -138
-3 c-129 -2 -138 -1 -133 15 3 10 8 32 12 48 27 120 114 176 195 128z"/>
<path d="M6870 6280 c-75 -19 -106 -31 -108 -43 -2 -11 6 -19 25 -23 63 -15
63 -14 63 -271 l0 -235 -29 -29 c-16 -16 -37 -29 -45 -29 -9 0 -16 -8 -16 -20
0 -19 7 -20 180 -20 169 0 180 1 180 19 0 13 -10 20 -32 25 -68 13 -68 15 -68
262 l0 223 27 20 c49 40 70 38 113 -9 45 -48 67 -48 113 1 36 39 36 86 1 128
-48 57 -140 38 -211 -43 l-42 -48 -3 59 c-4 71 -3 71 -148 33z"/>
<path d="M7563 5410 c-139 -38 -151 -48 -89 -74 19 -8 39 -23 45 -34 7 -14 11
-155 11 -425 l0 -405 34 -16 c162 -77 362 -55 479 53 159 147 132 472 -47 569
-47 25 -169 23 -221 -5 -22 -11 -49 -30 -59 -42 -11 -12 -23 -21 -28 -21 -4 0
-5 89 -2 198 5 158 3 200 -7 213 -13 15 -22 15 -116 -11z m347 -445 c55 -53
74 -116 74 -235 -1 -114 -25 -180 -85 -235 -34 -30 -46 -35 -90 -35 -60 0
-114 28 -122 63 -3 12 -4 85 -1 162 2 77 4 173 4 213 0 71 1 73 33 93 25 16
44 19 90 16 51 -3 62 -8 97 -42z"/>
<path d="M6123 5365 c-32 -32 -35 -40 -30 -76 14 -108 145 -132 191 -35 19 41
20 56 4 91 -14 32 -56 55 -99 55 -22 0 -41 -10 -66 -35z"/>
<path d="M4833 5359 c-234 -39 -387 -213 -400 -454 -13 -230 105 -413 306
-475 72 -23 217 -27 303 -9 56 12 172 60 180 75 3 5 9 62 12 127 7 114 7 117
-14 117 -11 0 -23 -6 -25 -12 -38 -111 -52 -136 -99 -183 -136 -135 -333 -85
-424 106 -38 82 -52 149 -52 254 0 158 38 264 121 339 56 51 98 66 179 66 110
0 194 -64 236 -178 21 -58 36 -75 57 -66 15 5 16 18 11 103 -4 53 -10 103 -15
112 -10 20 -100 54 -194 74 -77 16 -105 17 -182 4z"/>
<path d="M6140 5080 c-64 -16 -105 -32 -105 -40 0 -6 16 -20 35 -29 20 -9 37
-26 41 -41 11 -41 10 -401 -2 -443 -8 -28 -19 -42 -45 -54 -20 -10 -34 -24
-34 -35 0 -17 12 -18 165 -18 l165 0 0 25 c0 19 -5 25 -20 25 -12 0 -32 11
-45 25 l-25 24 0 289 c0 223 -3 291 -12 294 -7 2 -60 -8 -118 -22z"/>
<path d="M6486 5082 c-55 -15 -101 -33 -104 -39 -2 -7 12 -20 32 -29 22 -11
39 -28 46 -47 11 -33 12 -406 1 -447 -4 -14 -21 -34 -39 -45 -17 -11 -31 -28
-32 -38 0 -16 12 -17 152 -15 132 3 153 5 156 19 2 11 -8 20 -28 27 -18 7 -34
22 -40 37 -6 15 -10 120 -10 235 l0 209 25 20 c14 11 39 22 55 25 17 3 43 9
60 12 24 4 36 0 60 -25 l30 -30 -2 -228 -3 -228 -32 -20 c-18 -11 -32 -28 -33
-37 0 -16 14 -18 156 -18 l155 0 -3 23 c-2 14 -11 23 -25 25 -49 7 -53 29 -53
269 0 255 -5 241 97 263 67 15 103 0 120 -50 14 -42 18 -407 4 -443 -5 -13
-23 -30 -40 -37 -19 -8 -31 -20 -31 -31 0 -18 8 -19 152 -17 135 3 153 5 156
20 2 12 -5 19 -23 24 -52 13 -55 30 -55 269 0 239 -7 272 -61 322 -69 63 -194
53 -293 -22 l-46 -35 -16 31 c-18 36 -82 68 -136 69 -51 0 -142 -36 -184 -72
l-34 -30 0 56 c0 67 6 65 -134 28z"/>
<path d="M5563 5086 c-91 -29 -157 -89 -200 -181 -23 -52 -27 -73 -27 -150 0
-152 58 -256 172 -312 50 -25 68 -28 152 -28 89 0 99 3 158 34 74 40 115 84
151 161 22 47 26 69 26 150 0 88 -3 101 -33 163 -57 116 -161 178 -296 176
-34 0 -80 -6 -103 -13z m158 -59 c41 -27 75 -76 91 -131 20 -65 17 -261 -5
-323 -55 -157 -214 -148 -278 15 -19 48 -23 77 -23 177 -1 145 12 196 64 247
31 31 45 38 77 38 25 0 53 -9 74 -23z"/>
<path d="M8305 5080 c-38 -10 -82 -21 -97 -24 -38 -9 -35 -32 6 -46 54 -17 59
-41 55 -277 -4 -228 -11 -256 -64 -269 -16 -4 -25 -13 -25 -25 0 -18 10 -19
165 -19 158 0 165 1 165 20 0 13 -7 20 -20 20 -12 0 -32 11 -45 25 -25 24 -25
24 -25 235 l0 211 26 24 c39 36 76 33 108 -10 34 -44 67 -46 107 -6 80 80 -21
203 -124 150 -12 -6 -43 -32 -69 -57 l-48 -46 0 57 c0 67 0 67 -115 37z"/>
<path d="M8873 5081 c-137 -47 -213 -151 -153 -211 46 -46 109 -9 129 77 7 28
21 59 31 68 24 21 80 22 112 1 34 -22 47 -55 54 -136 l7 -69 -29 -6 c-257 -56
-344 -116 -344 -236 0 -126 103 -187 244 -145 26 8 63 27 83 42 28 21 38 24
41 14 10 -28 51 -59 87 -66 48 -9 107 9 147 45 34 30 32 59 -2 41 -29 -16 -58
-12 -70 9 -6 12 -10 104 -10 228 0 181 -3 213 -19 249 -45 99 -178 140 -308
95z m175 -433 c-3 -112 -3 -113 -30 -126 -15 -7 -50 -16 -77 -19 -46 -5 -52
-3 -80 25 -26 26 -31 38 -31 80 0 62 25 91 101 119 30 11 61 23 69 26 49 18
51 14 48 -105z"/>
<path d="M6093 4110 c-26 -32 -28 -40 -10 -40 20 0 88 50 82 61 -12 18 -50 7
-72 -21z"/>
<path d="M4935 4036 c-42 -18 -57 -39 -58 -81 -1 -47 22 -68 103 -97 67 -24
84 -45 59 -75 -17 -20 -101 -13 -128 11 -17 16 -19 15 -35 -9 l-17 -26 47 -20
c96 -43 194 -7 194 71 0 51 -16 67 -90 94 -71 26 -91 46 -74 74 15 23 57 27
96 8 38 -20 35 -20 48 4 8 16 6 22 -12 34 -35 22 -99 28 -133 12z"/>
<path d="M5584 4031 c-74 -45 -103 -118 -79 -199 19 -64 65 -102 129 -109 53
-6 79 -1 125 27 32 20 32 22 16 40 -16 18 -18 18 -48 -1 -18 -10 -48 -19 -68
-19 -102 0 -144 146 -61 211 32 25 101 22 131 -5 16 -15 19 -15 37 5 18 20 18
21 -6 39 -46 35 -129 40 -176 11z"/>
<path d="M6012 4034 c-18 -10 -45 -33 -60 -52 -23 -30 -27 -46 -27 -98 0 -70
17 -102 76 -142 45 -31 129 -28 178 8 37 26 70 90 71 135 0 40 -38 114 -72
139 -37 27 -123 32 -166 10z m144 -68 c28 -28 34 -41 34 -78 0 -71 -41 -117
-105 -117 -22 0 -47 5 -55 12 -67 52 -66 166 1 203 44 24 88 17 125 -20z"/>
<path d="M6414 4037 c-2 -7 -3 -80 -2 -162 l3 -150 108 -3 107 -3 0 26 c0 25
-1 25 -80 25 l-80 0 0 140 0 140 -25 0 c-14 0 -28 -6 -31 -13z"/>
<path d="M6840 4031 c-150 -79 -94 -311 75 -311 53 0 99 23 131 66 25 32 29
47 29 99 0 52 -4 67 -29 99 -49 65 -136 85 -206 47z m146 -65 c28 -28 34 -42
34 -76 0 -49 -23 -94 -57 -109 -75 -34 -142 10 -151 98 -4 47 -2 53 31 86 48
48 95 49 143 1z"/>
<path d="M7330 4039 c-61 -25 -100 -85 -100 -155 0 -128 127 -201 247 -143
l43 21 0 69 0 69 -66 0 c-62 0 -65 -1 -62 -22 2 -19 10 -24 41 -26 34 -3 37
-6 37 -32 0 -35 -23 -50 -78 -50 -50 0 -88 29 -101 77 -13 48 -4 88 29 123 32
34 82 40 130 15 27 -14 30 -14 45 8 15 21 14 23 -22 39 -42 19 -104 22 -143 7z"/>
<path d="M7780 4039 c-61 -25 -100 -85 -100 -155 0 -126 126 -202 239 -144
114 57 114 233 0 290 -41 21 -99 25 -139 9z m130 -67 c74 -75 30 -202 -70
-202 -48 0 -86 30 -99 77 -32 114 90 204 169 125z"/>
<path d="M4480 3886 c0 -97 4 -156 10 -157 44 -6 45 -5 48 47 l3 51 61 6 c51
4 66 11 92 36 42 42 43 99 3 139 -25 25 -34 27 -122 30 l-95 4 0 -156z m174
88 c21 -20 20 -53 -1 -76 -11 -13 -30 -18 -65 -18 l-48 0 0 55 0 55 49 0 c32
0 55 -6 65 -16z"/>
<path d="M5280 3881 l0 -158 25 5 25 4 0 154 0 154 -25 0 -25 0 0 -159z"/>
</g>
</svg>
